<svg id="Layer_1" data-name="Layer 1" xmlns="http://www.w3.org/2000/svg" viewBox="0 0 3.81 3.8"><defs><style>.cls-1,.cls-2{fill:#0e0e0e;}.cls-2{fill-rule:evenodd;}</style></defs><path class="cls-1" d="M14.49,14.4a1.9,1.9,0,1,1,1.9-1.9A1.9,1.9,0,0,1,14.49,14.4Zm0-3.55a1.65,1.65,0,1,0,1.65,1.65A1.65,1.65,0,0,0,14.49,10.85Z" transform="translate(-12.59 -10.6)"/><path class="cls-2" d="M15,13.44l-.21,0a2,2,0,0,1-1.06-.79,1.28,1.28,0,0,1-.23-.45.58.58,0,0,1,.18-.53.3.3,0,0,1,.26,0,.12.12,0,0,1,.05.05c0,.14.11.27.17.41a.09.09,0,0,1,0,.07.88.88,0,0,1-.12.17s0,.06,0,.11a1.34,1.34,0,0,0,.67.57.08.08,0,0,0,.1,0l.15-.18s.06,0,.11,0l.28.13.07,0c.09.05.09.05.08.16s-.17.31-.36.36Z" transform="translate(-12.59 -10.6)"/><path class="cls-2" d="M15.18,11.83a.81.81,0,0,1,.17.24.68.68,0,0,1,.07.23s0,0,0,0h-.13s0,0,0,0a.7.7,0,0,0-.18-.39.68.68,0,0,0-.55-.23h0a.71.71,0,0,0,0-.14s0,0,0,0a.78.78,0,0,1,.26,0,.72.72,0,0,1,.2.09l.06,0,0,0Z" transform="translate(-12.59 -10.6)"/><path class="cls-2" d="M15,12a.63.63,0,0,1,.21.4s0,0,0,0h-.11s0,0,0,0a.48.48,0,0,0-.2-.32.4.4,0,0,0-.28-.08s0,0,0,0,0-.08,0-.12,0,0,0,0A.69.69,0,0,1,15,12Z" transform="translate(-12.59 -10.6)"/><path class="cls-2" d="M14.8,12.4a.24.24,0,0,0-.24-.22h0a.49.49,0,0,1,0-.12s0,0,0,0a.41.41,0,0,1,.4.35H14.8Z" transform="translate(-12.59 -10.6)"/></svg>