<svg id="Layer_1" data-name="Layer 1" xmlns="http://www.w3.org/2000/svg" viewBox="0 0 3.81 3.8"><defs><style>.cls-1{fill:#0e0e0e;}</style></defs><path class="cls-1" d="M2.55,5.1A1.91,1.91,0,1,1,4.46,3.19,1.91,1.91,0,0,1,2.55,5.1Zm0-3.56a1.66,1.66,0,0,0,0,3.31,1.66,1.66,0,1,0,0-3.31Z" transform="translate(-0.65 -1.29)"/><path class="cls-1" d="M2,2.69h.25V2.56a.89.89,0,0,1,0-.32.4.4,0,0,1,.17-.17A.68.68,0,0,1,2.75,2a1.15,1.15,0,0,1,.37.06l-.06.31-.2,0c-.07,0-.11,0-.14,0s0,.08,0,.17v.12H3V3H2.68V4.38H2.23V3H2Z" transform="translate(-0.65 -1.29)"/></svg>