<svg id="Layer_1" data-name="Layer 1" xmlns="http://www.w3.org/2000/svg" viewBox="0 0 3.81 3.8"><defs><style>.cls-1,.cls-2{fill:#0e0e0e;}.cls-2{fill-rule:evenodd;}</style></defs><path class="cls-1" d="M2.55,23.71a1.9,1.9,0,1,1,1.91-1.9A1.9,1.9,0,0,1,2.55,23.71Zm0-3.55a1.65,1.65,0,1,0,1.66,1.65A1.65,1.65,0,0,0,2.55,20.16Z" transform="translate(-0.65 -19.91)"/><path class="cls-2" d="M2.78,22l-.16-.13a.12.12,0,0,1,0-.19l.11-.1a.39.39,0,0,0,.07-.51A1.13,1.13,0,0,0,2.67,21,.33.33,0,0,0,3,20.87H2.4a.9.9,0,0,0-.27.07.42.42,0,0,0-.19.62.4.4,0,0,0,.36.17s.06,0,0,0a.26.26,0,0,0,.07.23H2.34a.93.93,0,0,0-.46.15.32.32,0,0,0,0,.54.86.86,0,0,0,.86-.07A.38.38,0,0,0,2.78,22Zm-.59-.45a.54.54,0,0,1-.1-.39.23.23,0,0,1,.15-.2.21.21,0,0,1,.24.07.55.55,0,0,1,.15.35c0,.15,0,.23-.16.26A.23.23,0,0,1,2.19,21.55Zm.57.87a.24.24,0,0,1-.15.2.54.54,0,0,1-.22,0,.56.56,0,0,1-.31-.09.24.24,0,0,1,0-.44.61.61,0,0,1,.35-.07A.42.42,0,0,1,2.76,22.42Z" transform="translate(-0.65 -19.91)"/><path class="cls-1" d="M3.22,21.46v-.22H3v-.16h.22v-.22h.15v.22H3.6v.16H3.37v.22Z" transform="translate(-0.65 -19.91)"/></svg>