<svg id="Layer_1" data-name="Layer 1" xmlns="http://www.w3.org/2000/svg" viewBox="0 0 3.8 3.8"><defs><style>.cls-1,.cls-2{fill:#0e0e0e;}.cls-2{fill-rule:evenodd;}</style></defs><path class="cls-1" d="M22.45,23.71a1.9,1.9,0,1,1,1.9-1.9A1.9,1.9,0,0,1,22.45,23.71Zm0-3.55a1.65,1.65,0,1,0,1.65,1.65A1.65,1.65,0,0,0,22.45,20.16Z" transform="translate(-20.55 -19.91)"/><path class="cls-2" d="M23.16,20.84H21.74a.23.23,0,0,0-.26.26v1.42a.23.23,0,0,0,.25.26h1.43a.23.23,0,0,0,.26-.26V21.1A.23.23,0,0,0,23.16,20.84Zm-.16.22c.2,0,.2,0,.2.19s0,.19-.19.19-.19,0-.19-.19S22.82,21.06,23,21.06Zm-.55.37a.38.38,0,0,1,.37.38.37.37,0,0,1-.38.37.38.38,0,0,1-.37-.38A.39.39,0,0,1,22.45,21.43Zm.75,1c0,.09,0,.11-.12.11H21.82c-.09,0-.12,0-.12-.11v-.7c0-.07,0-.09.08-.08s.09,0,.08.08a.59.59,0,0,0,.47.65A.6.6,0,0,0,23,22a.66.66,0,0,0,0-.28s0,0,0,0,.14,0,.14.13Z" transform="translate(-20.55 -19.91)"/></svg>