<svg id="Layer_1" data-name="Layer 1" xmlns="http://www.w3.org/2000/svg" viewBox="0 0 3.8 3.8"><defs><style>.cls-1,.cls-2{fill:#0e0e0e;}.cls-2{fill-rule:evenodd;}</style></defs><path class="cls-1" d="M10.51,5.1a1.91,1.91,0,1,1,1.9-1.91A1.91,1.91,0,0,1,10.51,5.1Zm0-3.56a1.66,1.66,0,1,0,1.65,1.65A1.65,1.65,0,0,0,10.51,1.54Z" transform="translate(-8.61 -1.29)"/><path class="cls-2" d="M9.33,4.09A1.28,1.28,0,0,0,9.88,4l.22-.13a.86.86,0,0,1-.23-.06.57.57,0,0,1-.25-.28s0,0,0,0a.43.43,0,0,0,.2,0l-.13-.05A.52.52,0,0,1,9.43,3s0,0,0,0a.46.46,0,0,0,.21,0L9.57,3a.51.51,0,0,1-.08-.59s0,0,0,0a1.47,1.47,0,0,0,.92.51l.12,0s0,0,0,0a.52.52,0,0,1,.88-.47,0,0,0,0,0,.06,0,1,1,0,0,0,.28-.11h0a.58.58,0,0,1-.22.29,1.28,1.28,0,0,0,.28-.07s0,0,0,0a2.28,2.28,0,0,1-.22.22s0,0,0,0a1.55,1.55,0,0,1-.37,1,1.42,1.42,0,0,1-.87.49,1.55,1.55,0,0,1-1.05-.2Z" transform="translate(-8.61 -1.29)"/></svg>