<svg id="Layer_1" data-name="Layer 1" xmlns="http://www.w3.org/2000/svg" viewBox="0 0 3.8 3.81"><defs><style>.cls-1,.cls-2{fill:#0e0e0e;}.cls-2{fill-rule:evenodd;}</style></defs><path class="cls-1" d="M18.47,5.1a1.91,1.91,0,1,1,1.9-1.91A1.91,1.91,0,0,1,18.47,5.1Zm0-3.56a1.66,1.66,0,1,0,1.65,1.65A1.65,1.65,0,0,0,18.47,1.54Z" transform="translate(-16.57 -1.29)"/><path class="cls-2" d="M19.5,3a1.06,1.06,0,0,0-1-.82l-.2,0a1.06,1.06,0,0,0-.72,1.54s0,0,0,.05l-.13.49s0,0,0,0L18,4.12h0a1.07,1.07,0,0,0,.7.1A1.05,1.05,0,0,0,19.5,3Zm-.88,1.1H18.5A.92.92,0,0,1,18,3.94a.06.06,0,0,0-.06,0L17.68,4s0,0,0,0,0-.18.07-.27a.06.06,0,0,0,0-.07.88.88,0,0,1,0-1A.88.88,0,0,1,19.33,3,.88.88,0,0,1,18.62,4.05Z" transform="translate(-16.57 -1.29)"/><path class="cls-2" d="M18.74,3.69a.18.18,0,0,1-.1,0,1.07,1.07,0,0,1-.58-.42A.68.68,0,0,1,17.94,3a.3.3,0,0,1,.1-.29.22.22,0,0,1,.14,0l0,0,.09.22s0,0,0,0l-.07.09s0,0,0,.06a.73.73,0,0,0,.36.31,0,0,0,0,0,.05,0l.08-.09s0,0,.06,0l.15.07,0,0c.05,0,.05,0,0,.08s-.09.17-.19.2Z" transform="translate(-16.57 -1.29)"/></svg>